HIERARCHY
ROOT ui
{
	 OFFSET 0 0 0
	 CHANNELS 3 XPosition YPosition Z Position
	 EndSite
	 {
	 OFFSET 0 -1 0
	 }
}
ROOT li
{
	 OFFSET 0 0 0
	 CHANNELS 3 XPosition YPosition Z Position
	 EndSite
	 {
	 OFFSET 0 -1 0
	 }
}
ROOT ul
{
	 OFFSET 0 0 0
	 CHANNELS 3 XPosition YPosition Z Position
	 EndSite
	 {
	 OFFSET 0 -1 0
	 }
}
ROOT ll
{
	 OFFSET 0 0 0
	 CHANNELS 3 XPosition YPosition Z Position
	 EndSite
	 {
	 OFFSET 0 -1 0
	 }
}
ROOT tt
{
	 OFFSET 0 0 0
	 CHANNELS 3 XPosition YPosition Z Position
	 EndSite
	 {
	 OFFSET 0 -1 0
	 }
}
ROOT tb
{
	 OFFSET 0 0 0
	 CHANNELS 3 XPosition YPosition Z Position
	 EndSite
	 {
	 OFFSET 0 -1 0
	 }
}
ROOT td
{
	 OFFSET 0 0 0
	 CHANNELS 3 XPosition YPosition Z Position
	 EndSite
	 {
	 OFFSET 0 -1 0
	 }
}
ROOT v
{
	 OFFSET 0 0 0
	 CHANNELS 3 XPosition YPosition Z Position
	 EndSite
	 {
	 OFFSET 0 -1 0
	 }
}
ROOT bn
{
	 OFFSET 0 0 0
	 CHANNELS 3 XPosition YPosition Z Position
	 EndSite
	 {
	 OFFSET 0 -1 0
	 }
}
MOTION
Frames: 32
Frame Time: 0.002
-4.768480062484741E-4	-8.934400081634521E-4	0		0.50871875	-2.430125732421875	0		-1.2582103271484375	-0.10230051422119141	0		-0.6522669067382812	-2.80507421875	0		1.15453466796875	-0.7789920043945312	0		2.403509033203125	0.49269378662109375	0		4.13764599609375	0.35964630126953123	0		5.48707177734375	-0.19346627807617187	0		-0.330143798828125	5.86095751953125	0		
-0.023381195068359374	3.0270299315452576E-4	0		0.5072262878417969	-2.435145751953125	0		-1.1791363525390626	-0.10493514251708984	0		-0.6058252563476563	-2.8200732421875	0		1.1516826171875	-0.7848616943359376	0		2.4275732421875	0.49866790771484376	0		4.15875341796875	0.36702813720703126	0		5.4780849609375	-0.16378242492675782	0		-0.35659347534179686	5.8411181640625	0		
-0.021341699600219727	1.13986998796463E-4	0		0.5087465515136719	-2.43720751953125	0		-1.2580958251953125	-0.10613739776611328	0		-0.648991455078125	-2.80668798828125	0		1.1567347412109374	-0.7948482055664062	0		2.4393095703125	0.4858432312011719	0		4.16480615234375	0.3736555480957031	0		5.51007373046875	-0.19269493103027344	0		-0.35577947998046877	5.840859375	0		
-0.019364770889282228	-6.721100211143493E-5	0		0.5221397094726562	-2.4434423828125	0		-1.25205224609375	-0.10363616180419923	0		-0.6433858642578125	-2.804044921875	0		1.16272705078125	-0.8048429565429688	0		2.463272705078125	0.4918442993164063	0		4.17361474609375	0.36824148559570313	0		5.49900927734375	-0.14042953491210938	0		-0.46102117919921876	5.8411943359375	0		
-0.012544882774353028	-0.005311307907104493	0		0.5104740905761719	-2.4472958984375	0		-1.250136962890625	-0.10405809020996094	0		-0.6259959106445312	-2.8095634765625	0		1.1676519775390626	-0.8138162841796875	0		2.467490966796875	0.4531390686035156	0		4.1847578125	0.3907894287109375	0		5.5075400390625	-0.13907945251464843	0		-0.3411673583984375	5.85017626953125	0		
-0.012631314277648926	0.0025605039596557615	0		0.5169259033203125	-2.43540869140625	0		-1.175401123046875	-0.11052056884765625	0		-0.6345148315429687	-2.800681640625	0		1.167375244140625	-0.8297095947265625	0		2.513857666015625	0.4298179931640625	0		4.20838671875	0.38513946533203125	0		5.5101484375	-0.16177915954589844	0		-0.3405230712890625	5.84995458984375	0		
-0.013989065170288086	-5.361040234565735E-4	0		0.5180398559570313	-2.437434814453125	0		-1.177737548828125	-0.11382100677490234	0		-0.6323037109375	-2.800938232421875	0		1.2068963623046876	-0.852172119140625	0		2.4870341796875	0.4005576171875	0		4.20892822265625	0.3808064270019531	0		5.53129345703125	-0.1730721435546875	0		-0.354063232421875	5.840955078125	0		
-0.012422267913818359	-6.563680171966553E-4	0		0.5258504638671875	-2.450545166015625	0		-1.1970919189453124	-0.10984841918945312	0		-0.6302438354492188	-2.801167236328125	0		1.2063861083984375	-0.8680474243164062	0		2.502159912109375	0.3746815185546875	0		4.20917236328125	0.36344561767578126	0		5.53239404296875	-0.18200392150878905	0		-0.5067507934570312	5.82594873046875	0		
-0.010979597091674804	-7.527570128440857E-4	0		0.5047911987304687	-2.443232177734375	0		-1.1956314697265624	-0.11013703155517578	0		-0.6232630615234375	-2.7954345703125	0		1.2167440185546874	-0.8840707397460937	0		2.5190908203125	0.342771728515625	0		4.19929052734375	0.34519049072265623	0		5.5427353515625	-0.18096078491210937	0		-0.47022900390625	5.8272666015625	0		
4.744729995727539E-4	0.009038366317749024	0		0.5443378295898438	-2.452752197265625	0		-1.1862166748046874	-0.104491943359375	0		-0.6493804931640625	-2.784205810546875	0		1.2190093994140625	-0.896971923828125	0		2.53414697265625	0.32788174438476564	0		4.2074716796875	0.3396439208984375	0		5.55075390625	-0.195503173828125	0		-0.4575904235839844	5.83996240234375	0		
-0.0023784201145172117	0.00605626392364502	0		0.5417806396484375	-2.45766259765625	0		-1.1240469970703124	-0.10752412414550781	0		-0.5809558715820312	-2.79424951171875	0		1.23398486328125	-0.9210396118164063	0		2.4897744140625	0.29079962158203126	0		4.212203125	0.3101066589355469	0		5.5545185546875	-0.1892362518310547	0		-0.3380279541015625	5.8492265625	0		
-0.007410963058471679	-8.67205023765564E-4	0		0.5281563110351563	-2.4554013671875	0		-1.202005126953125	-0.10958174133300781	0		-0.6233749389648438	-2.779723388671875	0		1.2227325439453125	-0.9517362060546875	0		2.51035205078125	0.25781179809570315	0		4.20914892578125	0.3046427001953125	0		5.5488388671875	-0.19659307861328126	0		-0.35176202392578126	5.84037353515625	0		
-0.03246940231323242	-4.889970123767853E-4	0		0.539217529296875	-2.464456298828125	0		-1.13011572265625	-0.11463584136962891	0		-0.5841484985351563	-2.779273193359375	0		1.26432958984375	-0.9841395874023438	0		2.53177587890625	0.2218080291748047	0		4.21860986328125	0.27197061157226565	0		5.55588525390625	-0.20792662048339844	0		-0.4856776428222656	5.821181640625	0		
0.019332326889038087	-0.0021181089878082276	0		0.5491360473632813	-2.472471435546875	0		-1.20022607421875	-0.10971591186523437	0		-0.6350499877929687	-2.77556298828125	0		1.2289661865234376	-1.0034871826171874	0		2.558467041015625	0.21373158264160155	0		4.2234873046875	0.2783307800292969	0		5.56868310546875	-0.19531643676757812	0		-0.4712140197753906	5.83101171875	0		
0.005188467025756836	0.009176305770874024	0		0.51719091796875	-2.458899658203125	0		-1.189525390625	-0.1108392105102539	0		-0.6138317260742188	-2.751783447265625	0		1.2823095703125	-1.036015869140625	0		2.56760986328125	0.1728843994140625	0		4.23901318359375	0.2665154724121094	0		5.576328125	-0.19646383666992187	0		-0.3235068054199219	5.8601015625	0		
-0.004342480182647705	-5.624499917030334E-4	0		0.5398320922851563	-2.466037353515625	0		-1.198903076171875	-0.10964427947998047	0		-0.6460095825195312	-2.746250732421875	0		1.28258154296875	-1.06481640625	0		2.5850810546875	0.16392567443847655	0		4.23552099609375	0.2609278869628906	0		5.57897802734375	-0.18368603515625	0		-0.35048953247070314	5.840572265625	0		
-0.003839669942855835	-4.0297600626945494E-4	0		0.5363836059570313	-2.469802001953125	0		-1.127455322265625	-0.11447740173339843	0		-0.5724267578125	-2.749087890625	0		1.332658447265625	-1.1002655029296875	0		2.58112548828125	0.1302479248046875	0		4.254931640625	0.2550098876953125	0		5.5790908203125	-0.2297248992919922	0		-0.33709542846679685	5.8505439453125	0		
-0.003429857015609741	-2.1154400706291197E-4	0		0.53582275390625	-2.47258203125	0		-1.1960892333984374	-0.11740178680419922	0		-0.6605608520507813	-2.719734375	0		1.342660400390625	-1.13316650390625	0		2.575240234375	0.10859317016601562	0		4.2561484375	0.24130838012695313	0		5.58645654296875	-0.2414664306640625	0		-0.4701160888671875	5.83149169921875	0		
-0.0031059861183166506	1.0747999884188175E-5	0		0.5450767822265625	-2.48047021484375	0		-1.1917242431640624	-0.11425057983398437	0		-0.6303314819335938	-2.72991845703125	0		1.3438289794921876	-1.1459361572265625	0		2.605069580078125	0.07145976257324219	0		4.27626806640625	0.22633065795898438	0		5.58958251953125	-0.23411192321777344	0		-0.48882470703125	5.83595849609375	0		
0.012204551696777343	0.005063634872436523	0		0.551407470703125	-2.474296875	0		-1.112458740234375	-0.11304816436767579	0		-0.6328404541015625	-2.711629638671875	0		1.3587183837890624	-1.172877197265625	0		2.64448388671875	0.08420042419433593	0		4.29768359375	0.23931387329101564	0		5.5926396484375	-0.22855462646484376	0		-0.321263671875	5.8599951171875	0		
-0.009512413024902343	0.0136345796585083	0		0.5376275024414062	-2.468836669921875	0		-1.1222574462890624	-0.11062555694580078	0		-0.6086126098632813	-2.70566259765625	0		1.3756029052734375	-1.1938328857421876	0		2.629130615234375	0.04465888977050781	0		4.31962060546875	0.22126492309570311	0		5.589814453125	-0.24536326599121094	0		-0.4552887878417969	5.84205615234375	0		
0.002359524965286255	-0.004217628002166748	0		0.5455442504882813	-2.47964697265625	0		-1.1261873779296876	-0.11324495697021485	0		-0.6184068603515624	-2.694213623046875	0		1.4082767333984374	-1.22498974609375	0		2.64217578125	0.039740760803222655	0		4.3246298828125	0.21342025756835936	0		5.58636083984375	-0.23798663330078124	0		-0.33592752075195315	5.85178955078125	0		
0.0024150729179382322	-0.0038913071155548097	0		0.5434887084960938	-2.482309326171875	0		-1.1342274169921875	-0.11977904510498047	0		-0.6164024047851563	-2.691896240234375	0		1.4101240234375	-1.2377294921875	0		2.656005126953125	0.02280623435974121	0		4.3356904296875	0.21347564697265625	0		5.58412939453125	-0.26011508178710935	0		-0.4689707946777344	5.83289697265625	0		
-0.0025109109878540038	0.0015178519487380982	0		0.49351541137695315	-2.473320068359375	0		-1.1151597900390624	-0.114648193359375	0		-0.6093884887695312	-2.68362451171875	0		1.4697598876953124	-1.26223681640625	0		2.680024169921875	0.023731048583984376	0		4.34570458984375	0.21352542114257814	0		5.57861767578125	-0.22336067199707033	0		-0.45363009643554686	5.84205615234375	0		
0.0023873860836029054	-0.0031930229663848877	0		0.5493555908203125	-2.4747353515625	0		-1.1151990966796874	-0.11424443817138671	0		-0.6004193725585938	-2.674364013671875	0		1.4366068115234376	-1.2665028076171876	0		2.706533203125	-0.010387792587280273	0		4.36767724609375	0.21339837646484375	0		5.569224609375	-0.23842404174804688	0		-0.3201424865722656	5.8616494140625	0		
0.005358522891998291	1.3056300580501556E-4	0		0.521184326171875	-2.473021484375	0		-1.1262454833984374	-0.11167919158935546	0		-0.6084408569335937	-2.660864501953125	0		1.4662733154296874	-1.28160888671875	0		2.717543701171875	-0.004301421165466309	0		4.388603515625	0.21227151489257812	0		5.57299609375	-0.18992787170410155	0		-0.3340635986328125	5.8522177734375	0		
-0.002710181951522827	0.0026075129508972166	0		0.5448923950195312	-2.47800146484375	0		-1.12750927734375	-0.12323773956298828	0		-0.6144699096679688	-2.645384521484375	0		1.4748411865234374	-1.30143359375	0		2.720123291015625	-0.028108509063720703	0		4.40442236328125	0.2052025146484375	0		5.56450048828125	-0.1635435791015625	0		-0.333862060546875	5.8526044921875	0		
0.0021039319038391115	-0.0020882389545440676	0		0.5426031494140625	-2.480631591796875	0		-1.1376192626953125	-0.12167156982421876	0		-0.6086469116210937	-2.6390625	0		1.485694091796875	-1.298289306640625	0		2.737002197265625	-0.02811100959777832	0		4.41430078125	0.20420587158203124	0		5.56437451171875	-0.1685904541015625	0		-0.4659564208984375	5.8327822265625	0		
0.001970365047454834	-0.0017187589406967164	0		0.54640380859375	-2.47534619140625	0		-1.127773681640625	-0.12237657928466797	0		-0.621839599609375	-2.632484130859375	0		1.485218994140625	-1.317997802734375	0		2.7734833984375	-0.056388919830322265	0		4.41908251953125	0.19727066040039062	0		5.5516416015625	-0.12998020935058593	0		-0.4496824035644531	5.83995849609375	0		
0.012852984428405762	4.953350126743317E-4	0		0.5262523803710938	-2.46573876953125	0		-1.127923828125	-0.12195172882080078	0		-0.5749783935546875	-2.621728515625	0		1.51005712890625	-1.3140543212890625	0		2.798580078125	-0.03851571655273438	0		4.444837890625	0.18904454040527344	0		5.55251318359375	-0.08144248962402344	0		-0.3162391662597656	5.85953076171875	0		
0.0016773639917373657	-9.983159899711609E-4	0		0.5478773803710938	-2.472710693359375	0		-1.1380648193359375	-0.12040024566650391	0		-0.6279298706054688	-2.596618896484375	0		1.5067989501953125	-1.3167349853515624	0		2.782046875	-0.06608280181884765	0		4.4507939453125	0.19608755493164062	0		5.54819482421875	-0.06733407592773437	0		-0.3170573120117188	5.8619169921875	0		
0.0015251630544662477	-6.535019874572754E-4	0		0.5455770874023438	-2.47436474609375	0		-1.062367431640625	-0.1310433349609375	0		-0.5901987915039062	-2.595765869140625	0		1.54444140625	-1.326985107421875	0		2.797876220703125	-0.06709373474121094	0		4.4655537109375	0.1890093536376953	0		5.54515478515625	-0.07921162414550781	0		-0.3300865783691406	5.85045703125	0		
